<svg width="22" height="16" viewBox="0 0 22 16" fill="none" xmlns="http://www.w3.org/2000/svg">
<path d="M8.41881 10.8398C8.41881 11.6562 7.92571 12.9922 6.75857 12.9922C5.59143 12.9922 5.09833 11.6562 5.09833 10.8398C5.09833 10.0234 5.59143 8.6875 6.75857 8.6875C7.92571 8.6875 8.41881 10.0234 8.41881 10.8398ZM21.7143 8.86719C21.7143 10.1133 21.5695 11.4336 20.9226 12.5781C19.2081 15.5703 14.4943 15.5 11.1195 15.5C7.69048 15.5 2.69619 15.6055 0.913809 12.5781C0.253333 11.4453 0 10.1133 0 8.86719C0 7.23047 0.628809 5.68359 1.87738 4.42969C1.64214 3.8125 1.52905 3.16406 1.52905 2.52344C1.52905 1.68359 1.75071 1.26172 2.18952 0.5C4.23881 0.5 5.55071 0.851562 7.11143 1.90625C8.42333 1.63672 9.77143 1.51562 11.124 1.51562C12.3455 1.51562 13.576 1.62891 14.7612 1.875C16.2993 0.832031 17.6112 0.5 19.6379 0.5C20.0812 1.26172 20.2983 1.68359 20.2983 2.52344C20.2983 3.16406 20.1807 3.80078 19.95 4.40625C21.194 5.67187 21.7143 7.23047 21.7143 8.86719ZM18.8055 10.8398C18.8055 9.125 17.5976 7.61328 15.4805 7.61328C14.6255 7.61328 13.8067 7.74609 12.9471 7.84765C12.2731 7.9375 11.599 7.97265 10.9069 7.97265C10.2193 7.97265 9.54524 7.9375 8.86667 7.84765C8.02071 7.74609 7.19286 7.61328 6.33333 7.61328C4.21619 7.61328 3.00833 9.125 3.00833 10.8398C3.00833 14.2695 6.64548 14.7969 9.81214 14.7969H11.9926C15.1729 14.7969 18.8055 14.2734 18.8055 10.8398ZM15.0688 8.6875C13.9017 8.6875 13.4086 10.0234 13.4086 10.8398C13.4086 11.6562 13.9017 12.9922 15.0688 12.9922C16.236 12.9922 16.729 11.6562 16.729 10.8398C16.729 10.0234 16.236 8.6875 15.0688 8.6875Z" fill="#FFF2F2"/>
</svg>
